<?xml version="1.0" encoding="UTF-8"?>
<svg xmlns="http://www.w3.org/2000/svg" width="1000" height="1000">
<rect width="1000" height="1000" fill="#FFFFFF" />
<line x1="500.0" y1="0" x2="500.0" y2="400.0" stroke="#000000" stroke-width="4.0" />
<line x1="500.0" y1="400.0" x2="423.46331352698206" y2="584.7759065022574" stroke="#000000" stroke-width="2.0" />
<line x1="423.46331352698206" y1="584.7759065022574" x2="329.1824093687757" y2="679.0568106604637" stroke="#000000" stroke-width="1.3333333333333333" />
<line x1="329.1824093687757" y1="679.0568106604637" x2="236.79445611764703" y2="717.3251538969727" stroke="#000000" stroke-width="1.0" />
<line x1="236.79445611764703" y1="717.3251538969727" x2="156.79445611764703" y2="717.3251538969727" stroke="#000000" stroke-width="0.8" />
<line x1="156.79445611764703" y1="717.3251538969727" x2="95.20248728356124" y2="691.8129250726333" stroke="#000000" stroke-width="0.6666666666666666" />
<line x1="156.79445611764703" y1="717.3251538969727" x2="95.20248728356124" y2="742.837382721312" stroke="#000000" stroke-width="0.6666666666666666" />
<line x1="236.79445611764703" y1="717.3251538969727" x2="180.22591362272323" y2="773.8936963918965" stroke="#000000" stroke-width="0.8" />
<line x1="180.22591362272323" y1="773.8936963918965" x2="118.63394478863744" y2="799.4059252162358" stroke="#000000" stroke-width="0.6666666666666666" />
<line x1="180.22591362272323" y1="773.8936963918965" x2="154.7136847983839" y2="835.4856652259823" stroke="#000000" stroke-width="0.6666666666666666" />
<line x1="329.1824093687757" y1="679.0568106604637" x2="290.9140661322667" y2="771.4447639115924" stroke="#000000" stroke-width="1.0" />
<line x1="290.9140661322667" y1="771.4447639115924" x2="234.34552363734292" y2="828.0133064065162" stroke="#000000" stroke-width="0.8" />
<line x1="234.34552363734292" y1="828.0133064065162" x2="172.75355480325715" y2="853.5255352308556" stroke="#000000" stroke-width="0.6666666666666666" />
<line x1="234.34552363734292" y1="828.0133064065162" x2="208.8332948130036" y2="889.605275240602" stroke="#000000" stroke-width="0.6666666666666666" />
<line x1="290.9140661322667" y1="771.4447639115924" x2="290.9140661322667" y2="851.4447639115924" stroke="#000000" stroke-width="0.8" />
<line x1="290.9140661322667" y1="851.4447639115924" x2="265.4018373079274" y2="913.0367327456783" stroke="#000000" stroke-width="0.6666666666666666" />
<line x1="290.9140661322667" y1="851.4447639115924" x2="316.42629495660606" y2="913.0367327456783" stroke="#000000" stroke-width="0.6666666666666666" />
<line x1="423.46331352698206" y1="584.7759065022574" x2="423.46331352698206" y2="718.1092398355908" stroke="#000000" stroke-width="1.3333333333333333" />
<line x1="423.46331352698206" y1="718.1092398355908" x2="385.19497029047307" y2="810.4971930867194" stroke="#000000" stroke-width="1.0" />
<line x1="385.19497029047307" y1="810.4971930867194" x2="328.62642779554926" y2="867.0657355816433" stroke="#000000" stroke-width="0.8" />
<line x1="328.62642779554926" y1="867.0657355816433" x2="267.0344589614635" y2="892.5779644059826" stroke="#000000" stroke-width="0.6666666666666666" />
<line x1="328.62642779554926" y1="867.0657355816433" x2="303.11419897120993" y2="928.6577044157291" stroke="#000000" stroke-width="0.6666666666666666" />
<line x1="385.19497029047307" y1="810.4971930867194" x2="385.19497029047307" y2="890.4971930867194" stroke="#000000" stroke-width="0.8" />
<line x1="385.19497029047307" y1="890.4971930867194" x2="359.68274146613373" y2="952.0891619208053" stroke="#000000" stroke-width="0.6666666666666666" />
<line x1="385.19497029047307" y1="890.4971930867194" x2="410.7071991148124" y2="952.0891619208053" stroke="#000000" stroke-width="0.6666666666666666" />
<line x1="423.46331352698206" y1="718.1092398355908" x2="461.73165676349106" y2="810.4971930867194" stroke="#000000" stroke-width="1.0" />
<line x1="461.73165676349106" y1="810.4971930867194" x2="461.73165676349106" y2="890.4971930867194" stroke="#000000" stroke-width="0.8" />
<line x1="461.73165676349106" y1="890.4971930867194" x2="436.21942793915173" y2="952.0891619208053" stroke="#000000" stroke-width="0.6666666666666666" />
<line x1="461.73165676349106" y1="890.4971930867194" x2="487.2438855878304" y2="952.0891619208053" stroke="#000000" stroke-width="0.6666666666666666" />
<line x1="461.73165676349106" y1="810.4971930867194" x2="518.3001992584149" y2="867.0657355816433" stroke="#000000" stroke-width="0.8" />
<line x1="518.3001992584149" y1="867.0657355816433" x2="543.8124280827542" y2="928.6577044157291" stroke="#000000" stroke-width="0.6666666666666666" />
<line x1="518.3001992584149" y1="867.0657355816433" x2="579.8921680925007" y2="892.5779644059826" stroke="#000000" stroke-width="0.6666666666666666" />
<line x1="500.0" y1="400.0" x2="576.536686473018" y2="584.7759065022574" stroke="#000000" stroke-width="2.0" />
<line x1="576.536686473018" y1="584.7759065022574" x2="576.536686473018" y2="718.1092398355908" stroke="#000000" stroke-width="1.3333333333333333" />
<line x1="576.536686473018" y1="718.1092398355908" x2="538.268343236509" y2="810.4971930867194" stroke="#000000" stroke-width="1.0" />
<line x1="538.268343236509" y1="810.4971930867194" x2="481.69980074158525" y2="867.0657355816433" stroke="#000000" stroke-width="0.8" />
<line x1="481.69980074158525" y1="867.0657355816433" x2="420.1078319074995" y2="892.5779644059826" stroke="#000000" stroke-width="0.6666666666666666" />
<line x1="481.69980074158525" y1="867.0657355816433" x2="456.1875719172459" y2="928.6577044157291" stroke="#000000" stroke-width="0.6666666666666666" />
<line x1="538.268343236509" y1="810.4971930867194" x2="538.268343236509" y2="890.4971930867194" stroke="#000000" stroke-width="0.8" />
<line x1="538.268343236509" y1="890.4971930867194" x2="512.7561144121697" y2="952.0891619208053" stroke="#000000" stroke-width="0.6666666666666666" />
<line x1="538.268343236509" y1="890.4971930867194" x2="563.7805720608484" y2="952.0891619208053" stroke="#000000" stroke-width="0.6666666666666666" />
<line x1="576.536686473018" y1="718.1092398355908" x2="614.8050297095269" y2="810.4971930867194" stroke="#000000" stroke-width="1.0" />
<line x1="614.8050297095269" y1="810.4971930867194" x2="614.8050297095269" y2="890.4971930867194" stroke="#000000" stroke-width="0.8" />
<line x1="614.8050297095269" y1="890.4971930867194" x2="589.2928008851876" y2="952.0891619208053" stroke="#000000" stroke-width="0.6666666666666666" />
<line x1="614.8050297095269" y1="890.4971930867194" x2="640.3172585338663" y2="952.0891619208053" stroke="#000000" stroke-width="0.6666666666666666" />
<line x1="614.8050297095269" y1="810.4971930867194" x2="671.3735722044507" y2="867.0657355816433" stroke="#000000" stroke-width="0.8" />
<line x1="671.3735722044507" y1="867.0657355816433" x2="696.8858010287901" y2="928.6577044157291" stroke="#000000" stroke-width="0.6666666666666666" />
<line x1="671.3735722044507" y1="867.0657355816433" x2="732.9655410385366" y2="892.5779644059826" stroke="#000000" stroke-width="0.6666666666666666" />
<line x1="576.536686473018" y1="584.7759065022574" x2="670.8175906312243" y2="679.0568106604637" stroke="#000000" stroke-width="1.3333333333333333" />
<line x1="670.8175906312243" y1="679.0568106604637" x2="709.0859338677333" y2="771.4447639115924" stroke="#000000" stroke-width="1.0" />
<line x1="709.0859338677333" y1="771.4447639115924" x2="709.0859338677333" y2="851.4447639115924" stroke="#000000" stroke-width="0.8" />
<line x1="709.0859338677333" y1="851.4447639115924" x2="683.5737050433939" y2="913.0367327456783" stroke="#000000" stroke-width="0.6666666666666666" />
<line x1="709.0859338677333" y1="851.4447639115924" x2="734.5981626920726" y2="913.0367327456783" stroke="#000000" stroke-width="0.6666666666666666" />
<line x1="709.0859338677333" y1="771.4447639115924" x2="765.6544763626571" y2="828.0133064065162" stroke="#000000" stroke-width="0.8" />
<line x1="765.6544763626571" y1="828.0133064065162" x2="791.1667051869964" y2="889.605275240602" stroke="#000000" stroke-width="0.6666666666666666" />
<line x1="765.6544763626571" y1="828.0133064065162" x2="827.2464451967429" y2="853.5255352308556" stroke="#000000" stroke-width="0.6666666666666666" />
<line x1="670.8175906312243" y1="679.0568106604637" x2="763.205543882353" y2="717.3251538969727" stroke="#000000" stroke-width="1.0" />
<line x1="763.205543882353" y1="717.3251538969727" x2="819.7740863772768" y2="773.8936963918965" stroke="#000000" stroke-width="0.8" />
<line x1="819.7740863772768" y1="773.8936963918965" x2="845.2863152016162" y2="835.4856652259823" stroke="#000000" stroke-width="0.6666666666666666" />
<line x1="819.7740863772768" y1="773.8936963918965" x2="881.3660552113627" y2="799.4059252162358" stroke="#000000" stroke-width="0.6666666666666666" />
<line x1="763.205543882353" y1="717.3251538969727" x2="843.205543882353" y2="717.3251538969727" stroke="#000000" stroke-width="0.8" />
<line x1="843.205543882353" y1="717.3251538969727" x2="904.7975127164389" y2="742.837382721312" stroke="#000000" stroke-width="0.6666666666666666" />
<line x1="843.205543882353" y1="717.3251538969727" x2="904.7975127164389" y2="691.8129250726333" stroke="#000000" stroke-width="0.6666666666666666" />
</svg>
